<svg width="24" height="24" viewBox="0 0 24 24" fill="none" xmlns="http://www.w3.org/2000/svg">
  <circle cx="12" cy="12" r="12" fill="#F7931A"/>
  <path d="M15.5 10.3C15.7 8.7 14.5 7.9 12.9 7.4L13.4 5.5L12.2 5.2L11.7 7.05C11.4 6.95 11.1 6.9 10.8 6.8L11.3 5L10.1 4.7L9.6 6.6C9.35 6.55 9.1 6.45 8.9 6.4V6.35L7.2 6L6.9 7.3C6.9 7.3 7.8 7.5 7.75 7.55C8.25 7.7 8.35 8 8.35 8.25L7.8 10.4C7.85 10.4 7.9 10.45 7.95 10.5L7.8 10.45L7 13.4C6.95 13.55 6.8 13.8 6.45 13.7C6.45 13.75 5.6 13.5 5.6 13.5L5 14.9L6.6 15.25C6.85 15.35 7.1 15.4 7.35 15.5L6.85 17.4L8.05 17.7L8.6 15.8C8.9 15.9 9.2 16 9.5 16.1L8.95 18L10.15 18.3L10.65 16.4C12.8 16.85 14.4 16.65 15.1 14.7C15.65 13.15 15.1 12.25 14 11.7C14.8 11.5 15.35 11 15.5 10.3ZM12.5 14C12.1 15.55 9.65 14.8 8.9 14.6L9.55 12C10.3 12.2 12.95 12.35 12.5 14ZM12.9 10.3C12.55 11.7 10.5 11.05 9.85 10.9L10.45 8.5C11.1 8.65 13.3 8.8 12.9 10.3Z" fill="white"/>
</svg> 