<svg width="188" height="31" viewBox="0 0 188 31" fill="none" xmlns="http://www.w3.org/2000/svg">
<path d="M111.03 13.7385C110.398 14.2742 110.32 15.2208 110.856 15.8527C111.392 16.4845 112.338 16.5625 112.97 16.0268L111.03 13.7385ZM148.682 7.19127L148.435 8.67086L148.682 7.19127ZM184.18 30.2653L180.586 13.3219L167.71 24.9067L184.18 30.2653ZM112 14.8826C112.97 16.0268 112.97 16.0272 112.969 16.0276C112.969 16.0276 112.969 16.028 112.969 16.0281C112.968 16.0284 112.968 16.0285 112.968 16.0285C112.968 16.0283 112.969 16.0275 112.971 16.026C112.975 16.023 112.982 16.0174 112.992 16.0091C113.012 15.9925 113.045 15.9655 113.091 15.929C113.183 15.8559 113.327 15.7444 113.521 15.6012C113.909 15.3146 114.498 14.9011 115.281 14.4125C116.847 13.4348 119.183 12.1586 122.224 10.9959C128.299 8.67303 137.199 6.79814 148.435 8.67086L148.928 5.71168C137.091 3.73874 127.65 5.70952 121.153 8.19375C117.907 9.43457 115.399 10.8023 113.693 11.8677C112.839 12.4005 112.185 12.8583 111.739 13.1876C111.516 13.3523 111.345 13.485 111.226 13.579C111.167 13.626 111.121 13.6634 111.088 13.6902C111.072 13.7036 111.059 13.7144 111.049 13.7225C111.044 13.7266 111.04 13.7299 111.037 13.7326C111.036 13.7339 111.034 13.7351 111.033 13.7361C111.032 13.7366 111.032 13.7372 111.031 13.7374C111.031 13.738 111.03 13.7385 112 14.8826ZM148.435 8.67086C159.654 10.5406 168.303 16.17 174.158 21.3539L176.146 19.1077C170.019 13.6832 160.872 7.70221 148.928 5.71168L148.435 8.67086Z" fill="white"/>
<path d="M12.7586 11.988L12.0566 13.756C11.5106 13.184 10.1066 12.04 8.05256 12.04C5.21856 12.04 3.21656 14.302 3.21656 17.24C3.21656 20.152 5.32256 22.466 8.10456 22.466C10.2366 22.466 11.5886 21.218 12.1346 20.672L12.7586 22.414C12.2126 22.986 10.5486 24.338 8.02656 24.338C3.99656 24.338 1.08456 21.244 1.08456 17.24C1.08456 13.236 4.07456 10.142 8.00056 10.142C10.4706 10.142 12.0566 11.312 12.7586 11.988ZM15.2993 24V5.202H17.3532V24H15.2993ZM20.8852 24V10.48H22.9392V24H20.8852ZM20.4952 6.996C20.4952 6.216 21.1192 5.592 21.8992 5.592C22.7052 5.592 23.3292 6.216 23.3292 6.996C23.3292 7.802 22.7052 8.426 21.8992 8.426C21.1192 8.426 20.4952 7.802 20.4952 6.996ZM37.2351 11.988L36.5331 13.756C35.9871 13.184 34.5831 12.04 32.5291 12.04C29.6951 12.04 27.6931 14.302 27.6931 17.24C27.6931 20.152 29.7991 22.466 32.5811 22.466C34.7131 22.466 36.0651 21.218 36.6111 20.672L37.2351 22.414C36.6891 22.986 35.0251 24.338 32.5031 24.338C28.4731 24.338 25.5611 21.244 25.5611 17.24C25.5611 13.236 28.5511 10.142 32.4771 10.142C34.9471 10.142 36.5331 11.312 37.2351 11.988ZM39.7758 24V5.202H41.8298V16.278L47.3418 10.48H49.9418L44.1178 16.538L50.2798 24H47.6278L41.8298 16.798V24H39.7758ZM77.6954 15.238V24H75.6414V15.862C75.6414 13.314 74.6014 12.014 72.5994 12.014C70.7014 12.014 69.2714 13.366 69.2714 15.888V24H67.2174V15.472C67.2174 13.314 66.0214 12.014 64.1234 12.014C62.3294 12.014 60.8474 13.522 60.8474 15.81V24H58.7934V10.48H60.8214C60.8214 11.728 60.8214 12.43 60.8214 12.43C61.3414 11.26 62.7714 10.142 64.6434 10.142C66.6714 10.142 68.1014 11.13 68.7254 12.612C69.5314 11 71.1434 10.142 73.0674 10.142C76.0834 10.142 77.6954 12.274 77.6954 15.238ZM80.2531 17.292C80.2531 12.976 83.2171 10.142 86.8051 10.142C90.7831 10.142 93.2271 13.002 93.2271 17.058C93.2271 17.136 93.2271 17.422 93.2011 17.682H82.3591C82.3851 20.698 84.4131 22.518 87.2211 22.518C89.5091 22.518 90.7831 21.322 91.4331 20.412L92.7851 21.4C92.0311 22.674 90.2631 24.338 87.1951 24.338C83.0871 24.338 80.2531 21.452 80.2531 17.292ZM82.4631 16.148H91.1211C90.9911 13.34 89.0411 11.91 86.8051 11.91C84.5951 11.91 82.6191 13.6 82.4631 16.148ZM96.5403 19.424L96.3583 5.8H98.5163L98.3343 19.424H96.5403ZM95.9683 22.882C95.9683 22.076 96.6443 21.426 97.4503 21.426C98.2563 21.426 98.9063 22.076 98.9063 22.882C98.9063 23.688 98.2563 24.338 97.4503 24.338C96.6443 24.338 95.9683 23.688 95.9683 22.882Z" fill="white"/>
</svg>
