<svg width="48" height="48" viewBox="0 0 48 48" fill="none" xmlns="http://www.w3.org/2000/svg">
<rect x="0.5" y="0.5" width="47" height="47" rx="8.5" fill="url(#paint0_linear_136_161)" stroke="#DEDEDE"/>
<g clip-path="url(#clip0_136_161)">
<path d="M32.9955 32H31.4985C31.4985 29.672 31.5885 29.3375 30.1785 29.0105C28.0215 28.5125 25.983 28.043 25.239 26.417C24.969 25.823 24.7875 24.845 25.4715 23.5565C27.003 20.663 27.387 18.182 26.5245 16.7495C25.5165 15.077 22.464 15.0695 21.447 16.775C20.583 18.227 20.973 20.6945 22.5165 23.543C23.214 24.827 23.0385 25.808 22.7685 26.405C22.0335 28.0385 20.0145 28.505 17.8755 28.997C16.4025 29.3375 16.4955 29.6495 16.4955 32H15.003L15 31.0655C15 29.177 15.15 28.088 17.382 27.572C19.905 26.9885 22.398 26.468 21.1995 24.2585C17.6505 17.711 20.1855 14 23.997 14C27.735 14 30.3375 17.5745 26.7975 24.2585C25.635 26.4545 28.0335 26.9765 30.615 27.572C32.85 28.088 32.9985 29.18 32.9985 31.0715L32.9955 32ZM40.2105 28.679C38.277 28.232 36.477 27.8405 37.3485 26.1935C40.0035 21.1805 38.0535 18.5 35.2485 18.5C33.351 18.5 31.8765 19.7255 31.8765 21.9875C31.8765 23.891 32.7375 25.25 33.2325 26.375H34.8045C34.5495 25.25 32.6055 22.532 33.6555 20.771C34.2735 19.733 36.2115 19.7315 36.8265 20.753C37.3965 21.6995 37.098 23.471 36.0255 25.4945C35.4435 26.594 35.6055 27.446 35.844 27.9665C36.3015 28.9655 37.3095 29.447 38.4495 29.7785C40.71 30.44 40.5015 29.8415 40.5015 31.9985H41.997L42 31.304C42 29.8865 41.889 29.066 40.2105 28.679ZM6.003 32H7.4985C7.4985 29.843 7.29 30.4415 9.5505 29.78C10.692 29.4485 11.7 28.967 12.156 27.968C12.3945 27.446 12.5565 26.5955 11.9745 25.496C10.902 23.4725 10.6035 21.701 11.1735 20.7545C11.7885 19.7315 13.7265 19.733 14.3445 20.7725C15.3945 22.535 13.4505 25.2515 13.1955 26.3765H14.7675C15.2625 25.2515 16.1235 23.8925 16.1235 21.989C16.125 19.7255 14.6505 18.5 12.753 18.5C9.948 18.5 7.998 21.1805 10.653 26.1935C11.5245 27.842 9.7245 28.232 7.791 28.679C6.111 29.066 6 29.8865 6 31.3055L6.003 32Z" fill="black"/>
</g>
<defs>
<linearGradient id="paint0_linear_136_161" x1="24" y1="0" x2="24" y2="48" gradientUnits="userSpaceOnUse">
<stop stop-color="#EAEAEA"/>
<stop offset="1" stop-color="white"/>
</linearGradient>
<clipPath id="clip0_136_161">
<rect width="36" height="36" fill="white" transform="translate(6 5)"/>
</clipPath>
</defs>
</svg>
