<svg width="48" height="48" viewBox="0 0 48 48" fill="none" xmlns="http://www.w3.org/2000/svg">
<rect x="0.5" y="0.5" width="47" height="47" rx="8.5" fill="url(#paint0_linear_1_192)" stroke="#DEDEDE"/>
<g clip-path="url(#clip0_1_192)">
<path d="M25.3347 19.5328C25.2938 19.4558 25.7337 19.4138 25.8118 19.4138C25.8982 19.4243 25.5832 19.9412 25.3347 19.5328ZM22.824 15.9488L22.95 15.9127C23.0247 15.9768 22.866 16.0235 22.8905 16.0713C22.9908 16.2522 22.915 16.3607 22.8998 16.4587C22.8835 16.5578 22.7785 16.5147 22.726 16.5672C22.6642 16.6442 23.027 16.6547 23.0317 16.6663C23.0445 16.7048 22.5942 16.7702 22.677 16.8658C22.789 17.0245 23.6383 16.6383 23.503 16.6605C23.7655 16.5287 23.5368 16.5147 23.3898 16.4388C23.3397 16.188 23.2977 15.8007 23.1413 15.6455L23.244 15.5265C23.0037 15.1777 22.824 15.9488 22.824 15.9488ZM38 24C38 31.7315 31.7315 38 24 38C16.2673 38 10 31.7315 10 24C10 16.2685 16.2673 10 24 10C31.7315 10 38 16.2685 38 24ZM28.305 17.7338C28.298 17.5635 28.0833 17.4025 27.8593 17.6977C27.7018 17.9007 27.7298 18.2098 27.6447 18.3475C27.5233 18.5517 28.3062 18.743 28.3062 18.5505C28.3353 18.2273 29.1602 18.477 29.3212 18.5213C29.6105 18.6018 30.0713 18.2577 29.5673 18.0768C29.1532 17.9252 28.935 17.763 28.8977 17.4667C28.8977 17.4667 29.117 17.2613 29.0213 17.273C28.767 17.3045 28.305 18.19 28.305 17.7338ZM35.6503 24C35.6503 22.7925 35.4438 21.5733 35.2338 20.9293C35.1662 20.7263 35.0133 20.5653 34.815 20.4883C34.5163 20.3717 33.2552 21.1848 33.065 20.7847C32.9402 20.5175 32.687 20.955 32.3977 20.794C32.2577 20.717 31.868 20.1932 31.6918 20.2573C31.3313 20.3868 32.2448 21.382 32.4945 21.5127C32.729 21.3353 33.4885 20.9702 33.6518 21.4683C33.9645 22.4063 32.792 23.4342 32.1923 23.9755C31.2963 24.7852 31.4643 23.4517 30.8542 22.9815C30.5333 22.7353 30.5368 22.2115 30.2125 22.0307C30.0678 21.949 29.404 21.1848 29.4098 21.0822L29.39 21.2758C29.2803 21.3587 29.047 20.9632 29.0225 20.9013C29.0225 21.2455 29.5825 21.7938 29.768 22.0692C30.0842 22.5417 30.2533 23.23 30.6407 23.6162C30.8483 23.8238 31.6417 24.6825 31.8482 24.6638C32.0733 24.644 32.785 24.1295 32.911 24.1587C33.6623 24.336 31.1423 27.8978 30.9032 28.3388C30.706 28.7087 31.0642 29.6233 31.035 30.0608C31.0012 30.566 30.6033 30.7293 30.2265 31.0047C29.8228 31.2998 29.9173 31.8738 29.5778 32.0838C28.9747 32.4548 28.5407 33.6623 27.6843 33.6565C27.4323 33.6553 26.3543 34.0765 26.2132 33.6647C26.1035 33.366 25.9565 33.1397 25.8013 32.8445C25.6497 32.5552 25.7838 32.2553 25.5995 31.9998C25.4723 31.8225 25.0453 31.42 25.0068 31.21C25.0045 31.0292 25.1433 30.4797 25.3335 30.384C25.6007 30.2475 25.3848 29.8497 25.3522 29.6187C25.2962 29.2057 25.0407 28.865 24.7338 28.6258C24.28 28.277 24.5145 27.9993 24.6207 27.5012C24.6207 27.2632 24.476 26.9505 24.1563 27.0438C23.4983 27.2352 23.6978 26.5305 23.2183 26.562C22.873 26.5865 22.5907 26.8058 22.2698 26.9027C21.8662 27.024 21.4532 26.807 21.0542 26.7568C19.4127 26.5492 18.8772 24.6732 19.3053 23.3198C19.3485 23.0982 19.1723 22.6875 19.2493 22.516C19.4337 22.1053 19.8093 21.6445 20.1383 21.333C20.3227 21.158 20.5595 21.2023 20.7765 21.0658C21.1113 20.8547 21.116 20.4207 21.4438 20.1547C21.9105 19.7755 22.5475 19.7837 23.1565 19.702C23.4808 19.6588 24.7152 19.3917 24.91 19.632C24.91 19.6763 25.1328 20.3367 24.8878 20.2993C25.393 20.3262 26.1128 21.1732 26.5923 20.9748C26.8385 20.8722 26.7487 20.1162 27.2538 20.4813C27.5595 20.7007 28.9292 20.7987 29.2138 20.5618C29.3888 20.4172 29.4868 19.4768 29.2745 19.3707C29.4098 19.5048 28.5617 19.5153 28.4823 19.485C28.3423 19.4337 28.2117 19.618 27.9865 19.5142C28.1218 19.5783 27.2328 19.1012 27.7322 18.736C27.5233 18.8888 27.3285 18.6928 27.1033 18.8608C26.9482 18.9868 27.1757 19.0708 26.954 19.1805C26.6017 19.359 26.3357 18.568 26.2027 18.4782C26.0673 18.3895 25.0197 17.6545 25.3043 18.134L26.2248 19.0498C26.1793 19.079 25.9833 18.7162 25.9833 18.981C26.0452 18.8235 26.0067 19.6565 25.862 19.3858C25.7978 19.282 25.967 19.2237 25.869 19.0732C25.869 18.974 25.603 18.8772 25.5517 18.8095C25.4058 18.6287 25.0185 18.2297 24.8085 18.134C24.7502 18.1072 23.9172 18.2355 23.8472 18.2623C23.7655 18.3767 23.6955 18.4968 23.6383 18.6252C23.4657 18.6893 23.3035 18.7722 23.1495 18.8748L22.9663 19.2867C22.887 19.3578 22.0738 19.6262 22.0692 19.6367C22.103 19.5492 21.501 19.4372 21.5407 19.2622C21.585 19.0697 21.7892 18.4688 21.7367 18.2495C21.6807 18.0197 22.9897 18.5808 23.0737 17.9753C23.1075 17.7128 23.1273 17.4072 22.7085 17.3628C22.7878 17.3722 23.5193 17.0758 23.6407 16.9428C23.811 16.7468 24.2018 16.4272 24.4853 16.4272C24.8167 16.4272 24.7455 15.9453 24.8983 15.7097C25.0512 15.7715 24.8167 16.1483 24.9998 16.3012C24.9882 16.181 25.519 16.3677 25.5703 16.3397C25.6917 16.2767 26.3683 16.314 26.2633 15.9967C26.1467 15.6735 26.3228 15.7692 26.4745 15.7015C26.4488 15.712 26.8712 14.9793 26.9435 15.2197C26.8933 14.9723 26.4523 15.306 26.2983 15.2932C25.9425 15.2652 26.093 14.6865 26.2272 14.5173C26.331 14.3832 25.9437 14.2187 25.939 14.4753C25.932 14.8592 25.575 15.2068 25.6578 15.7167C25.7838 16.4855 24.8003 15.5312 24.714 15.5837C24.3873 15.782 24.1202 15.334 24.2893 15.0657C24.462 14.7915 24.8785 14.8043 25.05 14.5103C25.1713 14.3027 25.3125 14.0612 25.4992 13.9037C26.1233 13.3798 26.296 13.7987 26.9178 13.8558C27.5257 13.9118 27.1232 14.0005 27.0392 14.2338C26.9587 14.4555 27.3728 14.5348 27.5163 14.3493C27.598 14.242 27.7835 13.9725 27.864 13.773C27.9678 13.514 28.9152 13.5432 28.2537 13.1477C27.8173 12.8875 25.9157 12.3637 24.6417 12.3637C24.3663 12.3637 24.1738 12.6705 23.9638 12.8443C23.5485 13.1885 22.4845 13.864 21.893 13.6587C21.2875 13.4498 19.9913 14.4287 19.7837 14.4357C19.7078 14.4403 19.7883 13.696 20.2013 13.6412C20.0228 13.668 21.6562 12.8163 21.6118 12.639C21.5582 12.429 18.3463 13.598 18.4898 13.8325C18.5587 13.9398 18.8387 13.9398 18.4712 14.1755C18.2612 14.3027 18.0372 15.11 17.84 15.11C17.2508 15.3678 17.2135 14.6025 16.5578 15.5872L15.5148 16.0072C13.9655 17.6533 12.8933 19.7382 12.5048 22.054C12.4897 22.1462 12.8945 22.3177 12.947 22.3807C13.0777 22.537 13.0777 23.2113 13.1418 23.4318C13.3028 23.9895 13.7007 24.2998 14.0052 24.8073C14.1848 25.1095 14.4835 25.8737 14.389 26.191C14.515 25.9833 15.6373 27.1418 15.8427 27.3833C16.3257 27.9515 16.6978 28.6398 15.9138 29.2022C15.6607 29.3842 16.2988 30.5193 15.9698 30.7982L15.5487 30.9067C15.1333 31.1622 15.3212 31.7887 15.5732 32.0523C17.6942 34.2702 20.6832 35.6538 23.9965 35.6538C30.433 35.6538 35.6503 30.4365 35.6503 24ZM22.2255 16.5835C22.3713 16.5193 22.5673 16.5217 22.5883 16.3268C22.6058 16.1542 22.6397 16.2732 22.6817 16.2102C22.7225 16.1483 22.6035 16.0492 22.5533 16.0398C22.4787 16.0235 22.4273 16.1203 22.3795 16.1612L22.2955 16.1833L22.2162 16.2848L22.2255 16.3408L22.124 16.4645C22.0248 16.5625 22.1263 16.6267 22.2255 16.5835Z" fill="black"/>
</g>
<defs>
<linearGradient id="paint0_linear_1_192" x1="24" y1="0" x2="24" y2="48" gradientUnits="userSpaceOnUse">
<stop stop-color="#EAEAEA"/>
<stop offset="1" stop-color="white"/>
</linearGradient>
<clipPath id="clip0_1_192">
<rect width="28" height="28" fill="white" transform="translate(10 10)"/>
</clipPath>
</defs>
</svg>
