<svg width="206" height="31" viewBox="0 0 206 31" fill="none" xmlns="http://www.w3.org/2000/svg">
<path d="M129.03 13.7385C128.398 14.2742 128.32 15.2208 128.856 15.8527C129.392 16.4845 130.338 16.5625 130.97 16.0268L129.03 13.7385ZM166.682 7.19127L166.435 8.67086L166.682 7.19127ZM202.18 30.2653L198.586 13.3219L185.71 24.9067L202.18 30.2653ZM130 14.8826C130.97 16.0268 130.97 16.0272 130.969 16.0276C130.969 16.0276 130.969 16.028 130.969 16.0281C130.968 16.0284 130.968 16.0285 130.968 16.0285C130.968 16.0283 130.969 16.0275 130.971 16.026C130.975 16.023 130.982 16.0174 130.992 16.0091C131.012 15.9925 131.045 15.9655 131.091 15.929C131.183 15.8559 131.327 15.7444 131.521 15.6012C131.909 15.3146 132.498 14.9011 133.281 14.4125C134.847 13.4348 137.183 12.1586 140.224 10.9959C146.299 8.67303 155.199 6.79814 166.435 8.67086L166.928 5.71168C155.091 3.73874 145.65 5.70952 139.153 8.19375C135.907 9.43457 133.399 10.8023 131.693 11.8677C130.839 12.4005 130.185 12.8583 129.739 13.1876C129.516 13.3523 129.345 13.485 129.226 13.579C129.167 13.626 129.121 13.6634 129.088 13.6902C129.072 13.7036 129.059 13.7144 129.049 13.7225C129.044 13.7266 129.04 13.7299 129.037 13.7326C129.036 13.7339 129.034 13.7351 129.033 13.7361C129.032 13.7366 129.032 13.7372 129.031 13.7374C129.031 13.738 129.03 13.7385 130 14.8826ZM166.435 8.67086C177.654 10.5406 186.303 16.17 192.158 21.3539L194.146 19.1077C188.019 13.6832 178.872 7.70221 166.928 5.71168L166.435 8.67086Z" fill="white"/>
<path d="M8.06721 10.142C11.2132 10.142 12.8512 12.482 12.8512 15.55V24H10.7972V15.472C10.7972 13.314 9.41921 12.014 7.59921 12.014C5.51921 12.014 4.06321 13.548 4.06321 15.784V24H2.00921V5.202H4.06321V12.43C4.71321 11.208 6.22121 10.142 8.06721 10.142ZM17.4494 17.24C17.4494 20.282 19.5034 22.466 22.3894 22.466C25.3014 22.466 27.3814 20.256 27.3814 17.24C27.3814 14.25 25.3014 12.014 22.3894 12.014C19.4774 12.014 17.4494 14.276 17.4494 17.24ZM15.3434 17.24C15.3434 13.158 18.3854 10.142 22.4154 10.142C26.4974 10.142 29.4614 13.184 29.4614 17.24C29.4614 21.296 26.4454 24.338 22.3894 24.338C18.3334 24.338 15.3434 21.348 15.3434 17.24ZM37.9731 24H35.7111L30.4851 10.48H32.6951L36.8551 21.686L40.9891 10.48H43.1731L37.9731 24ZM44.2385 17.292C44.2385 12.976 47.2025 10.142 50.7905 10.142C54.7685 10.142 57.2125 13.002 57.2125 17.058C57.2125 17.136 57.2125 17.422 57.1865 17.682H46.3445C46.3705 20.698 48.3985 22.518 51.2065 22.518C53.4945 22.518 54.7685 21.322 55.4185 20.412L56.7705 21.4C56.0165 22.674 54.2485 24.338 51.1805 24.338C47.0725 24.338 44.2385 21.452 44.2385 17.292ZM46.4485 16.148H55.1065C54.9765 13.34 53.0265 11.91 50.7905 11.91C48.5805 11.91 46.6045 13.6 46.4485 16.148ZM65.8817 10.142V12.196C62.7877 12.196 61.8777 14.64 61.8777 17.526V24H59.8237V10.48H61.8517V12.742C62.3197 11.39 63.8277 10.142 65.8817 10.142ZM93.6807 15.238V24H91.6267V15.862C91.6267 13.314 90.5867 12.014 88.5847 12.014C86.6867 12.014 85.2567 13.366 85.2567 15.888V24H83.2027V15.472C83.2027 13.314 82.0067 12.014 80.1087 12.014C78.3147 12.014 76.8327 13.522 76.8327 15.81V24H74.7787V10.48H76.8067C76.8067 11.728 76.8067 12.43 76.8067 12.43C77.3267 11.26 78.7567 10.142 80.6287 10.142C82.6567 10.142 84.0867 11.13 84.7107 12.612C85.5167 11 87.1287 10.142 89.0527 10.142C92.0687 10.142 93.6807 12.274 93.6807 15.238ZM96.2385 17.292C96.2385 12.976 99.2025 10.142 102.79 10.142C106.768 10.142 109.212 13.002 109.212 17.058C109.212 17.136 109.212 17.422 109.186 17.682H98.3445C98.3705 20.698 100.398 22.518 103.206 22.518C105.494 22.518 106.768 21.322 107.418 20.412L108.77 21.4C108.016 22.674 106.248 24.338 103.18 24.338C99.0725 24.338 96.2385 21.452 96.2385 17.292ZM98.4485 16.148H107.106C106.976 13.34 105.026 11.91 102.79 11.91C100.58 11.91 98.6045 13.6 98.4485 16.148ZM112.526 19.424L112.344 5.8H114.502L114.32 19.424H112.526ZM111.954 22.882C111.954 22.076 112.63 21.426 113.436 21.426C114.242 21.426 114.892 22.076 114.892 22.882C114.892 23.688 114.242 24.338 113.436 24.338C112.63 24.338 111.954 23.688 111.954 22.882Z" fill="white"/>
</svg>
