<svg width="48" height="48" viewBox="0 0 48 48" fill="none" xmlns="http://www.w3.org/2000/svg">
<rect x="0.5" y="0.5" width="47" height="47" rx="8.5" fill="url(#paint0_linear_1_161)" stroke="white"/>
<rect x="0.5" y="0.5" width="47" height="47" rx="8.5" fill="url(#paint1_linear_1_161)" stroke="#DEDEDE"/>
<g clip-path="url(#clip0_1_161)">
<path fill-rule="evenodd" clip-rule="evenodd" d="M38 23.4166C38 27.6318 34.5572 30.9999 30.4458 30.9999C27.9328 30.9999 25.6613 29.5836 24.2182 27.4999H20.8558L19.6355 26.3181L18.1165 27.5069L16.5275 26.2528L14.886 27.5139L10 23.4913L13.9037 19.3333H24.2182C25.554 17.3698 27.8395 15.8333 30.447 15.8333C34.5268 15.8333 38 19.1769 38 23.4166ZM25.5272 25.1666C26.6705 27.1161 28.1837 28.6666 30.447 28.6666C33.261 28.6666 35.6667 26.3496 35.6667 23.4166C35.6667 20.5023 33.282 18.1666 30.4412 18.1666C28.0437 18.1666 26.6005 19.8384 25.5272 21.6666H14.914L13.4055 23.2719L14.9362 24.5331L16.5462 23.2953L18.1223 24.5389L19.7988 23.2288L21.7997 25.1666H25.5272ZM32.1667 21.5208C33.1327 21.5208 33.9167 22.3048 33.9167 23.2708C33.9167 24.2368 33.1327 25.0208 32.1667 25.0208C31.2007 25.0208 30.4167 24.2368 30.4167 23.2708C30.4167 22.3048 31.2007 21.5208 32.1667 21.5208Z" fill="black"/>
</g>
<defs>
<linearGradient id="paint0_linear_1_161" x1="24" y1="0" x2="24" y2="48" gradientUnits="userSpaceOnUse">
<stop stop-color="#CBCBCB"/>
<stop offset="1" stop-color="white"/>
</linearGradient>
<linearGradient id="paint1_linear_1_161" x1="24" y1="0" x2="24" y2="48" gradientUnits="userSpaceOnUse">
<stop stop-color="#EAEAEA"/>
<stop offset="1" stop-color="white"/>
</linearGradient>
<clipPath id="clip0_1_161">
<rect width="28" height="28" fill="white" transform="translate(10 10)"/>
</clipPath>
</defs>
</svg>
