<svg width="48" height="48" viewBox="0 0 48 48" fill="none" xmlns="http://www.w3.org/2000/svg">
<rect x="0.5" y="0.5" width="47" height="47" rx="8.5" fill="url(#paint0_linear_1_182)" stroke="white"/>
<rect x="0.5" y="0.5" width="47" height="47" rx="8.5" fill="url(#paint1_linear_1_182)" stroke="#DEDEDE"/>
<g clip-path="url(#clip0_1_182)">
<path fill-rule="evenodd" clip-rule="evenodd" d="M28.4548 21.8565L26.145 19.5467L33.5452 12.1466L31.4003 10.0016H38.0001V16.6013L35.8552 14.4564L28.4548 21.8565ZM19.5453 21.8565L21.8551 19.5467L14.4549 12.1466L16.5998 10.0015H10V16.6011L12.1449 14.4563L19.5453 21.8564V21.8565ZM28.4548 26.1465L26.145 28.4565L33.5452 35.8566L31.4003 38.0014L38.0001 38.0015V31.4018L35.8552 33.5467L28.4548 26.1465ZM19.5453 26.1465L21.8551 28.4565L14.4549 35.8566L16.5998 38.0014L10 38.0015V31.4018L12.1449 33.5467L19.5453 26.1465Z" fill="black"/>
</g>
<defs>
<linearGradient id="paint0_linear_1_182" x1="24" y1="0" x2="24" y2="48" gradientUnits="userSpaceOnUse">
<stop stop-color="#CBCBCB"/>
<stop offset="1" stop-color="white"/>
</linearGradient>
<linearGradient id="paint1_linear_1_182" x1="24" y1="0" x2="24" y2="48" gradientUnits="userSpaceOnUse">
<stop stop-color="#EAEAEA"/>
<stop offset="1" stop-color="white"/>
</linearGradient>
<clipPath id="clip0_1_182">
<rect width="28" height="28" fill="white" transform="translate(10 10)"/>
</clipPath>
</defs>
</svg>
