<svg width="48" height="48" viewBox="0 0 48 48" fill="none" xmlns="http://www.w3.org/2000/svg">
<rect x="0.5" y="0.5" width="47" height="47" rx="8.5" fill="url(#paint0_linear_1_154)" stroke="white"/>
<rect x="0.5" y="0.5" width="47" height="47" rx="8.5" fill="url(#paint1_linear_1_154)" stroke="#DEDEDE"/>
<path d="M28.389 19.3882L23.2778 24.609L20.6937 22.1322L19.2517 23.5777L23.2778 27.5L29.8333 20.8325L28.389 19.3882ZM24 12.968C26.9167 15.0738 29.3142 15.642 32.1667 15.7867V26.9575C32.1667 30.5065 30.1997 31.4223 24 35.249C17.8062 31.4247 15.8333 30.5065 15.8333 26.9575V15.7867C18.6882 15.642 21.0833 15.0738 24 12.968ZM24 10C20.0672 13.3437 17.602 13.5 13.5 13.5V26.9575C13.5 32.3277 17.2368 33.7288 24 38C30.7632 33.7288 34.5 32.3277 34.5 26.9575V13.5C30.398 13.5 27.9328 13.3437 24 10Z" fill="black"/>
<defs>
<linearGradient id="paint0_linear_1_154" x1="24" y1="0" x2="24" y2="48" gradientUnits="userSpaceOnUse">
<stop stop-color="#CBCBCB"/>
<stop offset="1" stop-color="white"/>
</linearGradient>
<linearGradient id="paint1_linear_1_154" x1="24" y1="0" x2="24" y2="48" gradientUnits="userSpaceOnUse">
<stop stop-color="#EAEAEA"/>
<stop offset="1" stop-color="white"/>
</linearGradient>
</defs>
</svg>
