<svg width="700" height="201" viewBox="0 0 700 201" fill="none" xmlns="http://www.w3.org/2000/svg">
<g clip-path="url(#clip0_1_2)">
<g clip-path="url(#clip1_1_2)">
<path d="M307.696 154.934L349.318 46.0014H331.837L298.748 136.29L265.45 46.0014H247.761L289.591 154.934H307.696V154.934ZM354.14 100.866C354.14 132.788 375.743 154.934 407.058 154.934C430.445 154.934 443.923 142.165 449.671 132.389L439.364 124.808C434.409 131.791 424.698 140.968 407.256 140.968C385.851 140.968 370.392 127.002 370.194 103.859H452.842C453.04 101.864 453.04 99.6693 453.04 99.0709C453.04 67.9472 434.409 46.001 404.085 46.001C376.734 46.001 354.14 67.7477 354.14 100.866V100.866ZM370.986 92.088C372.176 72.5359 387.239 59.5677 404.085 59.5677C421.13 59.5677 435.995 70.5409 436.986 92.088H370.986V92.088ZM515.806 43.0357C499.329 43.0357 487.233 53.1128 483.479 64.0298V45.7649H467.211V154.934H483.688V102.658C483.688 79.355 490.987 59.6205 515.806 59.6205V43.0352V43.0357ZM569.177 157.797C584.005 157.797 596.326 149.177 601.338 139.297V155.064H617.836V45.7492H601.129V112.179C601.129 130.258 589.643 142.661 572.936 142.661C558.318 142.661 547.249 132.15 547.249 114.702V45.7492H530.751V114.071C530.751 138.877 543.908 157.797 569.177 157.797V157.797ZM628.965 132.743C633.524 142.519 643.235 154.889 664.839 154.889C684.857 154.889 699.92 142.519 699.92 124.164C699.92 88.0525 647.992 96.8309 647.992 73.4882C647.992 64.5103 655.524 59.1235 665.037 59.1235C678.316 59.1235 683.668 66.9043 686.442 72.4907L697.938 65.9069C695.163 58.1259 685.253 45.9558 666.028 45.9558C647.397 45.9558 632.929 56.5298 632.929 74.0867C632.929 109.201 684.658 101.021 684.658 124.962C684.658 135.536 675.938 141.521 665.632 141.521C651.56 141.521 644.226 133.74 639.866 125.561L628.965 132.743Z" fill="#3165D4"/>
<path d="M100.5 201C156.005 201 201 156.005 201 100.5C201 44.9954 156.005 0 100.5 0C44.9954 0 0 44.9954 0 100.5C0 156.005 44.9954 201 100.5 201Z" fill="white"/>
<path fill-rule="evenodd" clip-rule="evenodd" d="M100.5 0C155.968 0 201 45.0324 201 100.5C201 155.967 155.967 201 100.5 201C45.0326 201 0 155.968 0 100.5C0 45.0327 45.0326 0 100.5 0ZM51.2278 36.3533C55.0232 33.1034 60.3483 30.4339 64.9778 32.3137C73.3023 35.6939 95.6682 80.7852 95.6682 80.7852C95.6682 80.7852 126.953 36.3395 138.189 32.2864C142.022 30.9038 147.278 33.3358 151.286 36.3322C165.353 46.8492 166.806 61.5218 165.59 65.5923C164.062 70.7098 86.3523 169.309 86.3523 169.309C84.0283 168.361 37.9847 82.9026 35.4895 68.2802C33.105 54.3063 41.2179 44.8116 51.2278 36.3533V36.3533Z" fill="#3165D4"/>
</g>
</g>
<defs>
<clipPath id="clip0_1_2">
<rect width="700" height="201" fill="white"/>
</clipPath>
<clipPath id="clip1_1_2">
<rect width="700" height="201" fill="white"/>
</clipPath>
</defs>
</svg>
