<svg width="17" height="17" viewBox="0 0 17 17" fill="none" xmlns="http://www.w3.org/2000/svg">
<path d="M4.98 8.82C4.98 6.46 6.66 4.88 8.74 4.88C10.2 4.88 11.04 5.72 11.28 6.04V5H12.62V10.1C12.62 11 12.96 11.56 13.84 11.56C14.84 11.56 15.62 10.48 15.62 8C15.62 4.34 13.1 1.68 9 1.68C4.92 1.68 2.2 4.86 2.2 8.72C2.2 12.72 4.94 15.68 8.88 15.68C10.24 15.68 11.56 15.36 12.62 14.76L13.22 15.74C12.38 16.32 10.76 16.9 8.88 16.9C4.42 16.9 0.82 13.48 0.82 8.74C0.82 4.06 4.24 0.479999 9.02 0.479999C13.98 0.479999 16.96 3.9 16.96 7.98C16.96 11.18 15.68 12.76 13.74 12.76C12.52 12.76 11.8 12.08 11.56 11.24C11.32 11.66 10.42 12.76 8.78 12.76C6.66 12.76 4.98 11.2 4.98 8.82ZM6.42 8.82C6.42 10.46 7.48 11.52 8.88 11.52C10.2 11.52 11.34 10.6 11.34 8.78C11.34 7.22 10.36 6.14 8.86 6.14C7.5 6.14 6.42 7.16 6.42 8.82Z" fill="black"/>
</svg>
