<svg width="27" height="27" viewBox="0 0 27 27" fill="none" xmlns="http://www.w3.org/2000/svg">
<g clip-path="url(#clip0_217_227)">
<path fill-rule="evenodd" clip-rule="evenodd" d="M13.5001 0C20.9509 0 27 6.04917 27 13.5001C27 20.9508 20.9509 27 13.5001 27C6.0492 27 0 20.9508 0 13.5001C0 6.04917 6.0492 0 13.5001 0ZM9.27568 13.65C9.27568 16.2213 11.0907 17.9068 13.381 17.9068C15.1528 17.9068 16.1252 16.7184 16.3847 16.2645C16.6441 17.1721 17.4219 17.9068 18.7399 17.9068C20.8361 17.9068 22.2191 16.1999 22.2191 12.7425C22.2191 8.3343 18.9992 4.63938 13.6403 4.63938C8.47595 4.63938 4.78126 8.50726 4.78126 13.5636C4.78126 18.6846 8.67049 22.3798 13.4893 22.3798C15.5203 22.3798 17.2708 21.753 18.1781 21.1265L17.5298 20.0677C16.3848 20.7159 14.9585 21.0616 13.4893 21.0616C9.23252 21.0616 6.2722 17.8636 6.2722 13.542C6.2722 9.37164 9.21063 5.9359 13.6187 5.9359C18.0484 5.9359 20.7713 8.8097 20.7713 12.7641C20.7713 15.4435 19.9283 16.6104 18.8481 16.6104C17.8973 16.6104 17.5298 16.0053 17.5298 15.033V9.52277H16.0823V10.6465C15.8227 10.3008 14.9151 9.39309 13.3379 9.39309C11.0907 9.39309 9.27568 11.1002 9.27568 13.65ZM10.8313 13.65C10.8313 11.8565 11.9983 10.7546 13.4677 10.7546C15.0881 10.7546 16.1471 11.9213 16.1471 13.6068C16.1471 15.5731 14.9151 16.5672 13.4893 16.5672C11.9764 16.5672 10.8313 15.4219 10.8313 13.65Z" fill="black"/>
</g>
<defs>
<clipPath id="clip0_217_227">
<rect width="27" height="27" fill="white"/>
</clipPath>
</defs>
</svg>
