<svg width="36" height="36" viewBox="0 0 36 36" fill="none" xmlns="http://www.w3.org/2000/svg">
<path d="M18 36C27.9411 36 36 27.9411 36 18C36 8.05887 27.9411 0 18 0C8.05887 0 0 8.05887 0 18C0 27.9411 8.05887 36 18 36Z" fill="#3065D4"/>
<path fill-rule="evenodd" clip-rule="evenodd" d="M0.883057 12.4203C3.2335 5.21355 10.0126 0 18 0C25.9873 0 32.7664 5.21352 35.1169 12.4202C23.6872 10.6061 12.276 10.6125 0.883057 12.4203Z" fill="#454A75"/>
<path fill-rule="evenodd" clip-rule="evenodd" d="M35.9741 17.0249C35.9914 17.3478 36 17.673 36 18.0002C36 27.9347 27.9346 36.0002 18 36.0002C8.06544 36.0002 0 27.9347 0 18.0002C0 17.673 0.00863016 17.3478 0.0259102 17.0249C11.9383 15.5175 23.9209 15.5134 35.9741 17.0249Z" fill="#3065D4"/>
<path fill-rule="evenodd" clip-rule="evenodd" d="M0.0268555 17.0248C0.112488 15.4259 0.407082 13.8822 0.883885 12.4204C12.2768 10.6126 23.6879 10.6062 35.1178 12.4204C35.5946 13.8821 35.8892 15.4259 35.9748 17.0248C23.9218 15.5134 11.9394 15.5174 0.0268555 17.0248Z" fill="white"/>
<path fill-rule="evenodd" clip-rule="evenodd" d="M7.74048 3.21237L7.74048 32.7878C8.53616 33.3413 9.37855 33.8319 10.2605 34.2532L10.2605 1.74701C9.37855 2.16832 8.53616 2.65884 7.74048 3.21237Z" fill="white"/>
<path fill-rule="evenodd" clip-rule="evenodd" d="M25.7405 1.74701V34.2532C26.6224 33.8319 27.4648 33.3413 28.2605 32.7878V3.21237C27.4648 2.65884 26.6224 2.16832 25.7405 1.74701Z" fill="white"/>
</svg>
