<svg width="27" height="27" viewBox="0 0 27 27" fill="none" xmlns="http://www.w3.org/2000/svg">
<path fill-rule="evenodd" clip-rule="evenodd" d="M13.7375 0.135986C21.052 0.135986 26.9905 6.1237 26.9905 13.4989C26.9905 20.874 21.052 26.8617 13.7375 26.8617C6.42292 26.8617 0.484375 20.874 0.484375 13.4989C0.484375 6.1237 6.42292 0.135986 13.7375 0.135986ZM9.59039 13.6473C9.59039 16.1925 11.3722 17.8609 13.6206 17.8609C15.36 17.8609 16.3146 16.6845 16.5694 16.2353C16.824 17.1336 17.5876 17.8609 18.8815 17.8609C20.9393 17.8609 22.297 16.1713 22.297 12.749C22.297 8.38562 19.136 4.72824 13.8752 4.72824C8.80529 4.72824 5.17818 8.55682 5.17818 13.5618C5.17818 18.6308 8.99627 22.2884 13.7269 22.2884C15.7208 22.2884 17.4393 21.668 18.33 21.0479L17.6935 19.9998C16.5695 20.6414 15.1693 20.9836 13.7269 20.9836C9.54802 20.9836 6.64185 17.8181 6.64185 13.5404C6.64185 9.41242 9.52653 6.01158 13.854 6.01158C18.2026 6.01158 20.8757 8.85619 20.8757 12.7704C20.8757 15.4226 20.0482 16.5776 18.9877 16.5776C18.0543 16.5776 17.6935 15.9787 17.6935 15.0163V9.56202H16.2725V10.6743C16.0177 10.3321 15.1267 9.43366 13.5783 9.43366C11.3722 9.43366 9.59039 11.1234 9.59039 13.6473ZM11.1176 13.6473C11.1176 11.872 12.2632 10.7813 13.7057 10.7813C15.2965 10.7813 16.3361 11.9362 16.3361 13.6046C16.3361 15.5509 15.1267 16.5349 13.7269 16.5349C12.2417 16.5349 11.1176 15.4012 11.1176 13.6473Z" fill="#3165D4"/>
</svg>
