<svg width="32" height="32" viewBox="0 0 32 32" fill="none" xmlns="http://www.w3.org/2000/svg">
<circle cx="16" cy="16" r="15" fill="white"/>
<path fill-rule="evenodd" clip-rule="evenodd" d="M16 0C24.8307 0 32 7.16933 32 16C32 24.8306 24.8306 32 16 32C7.16936 32 0 24.8307 0 16C0 7.16938 7.16936 0 16 0ZM8.15568 5.78758C8.75991 5.2702 9.6077 4.8452 10.3447 5.14448C11.67 5.68261 15.2308 12.8613 15.2308 12.8613C15.2308 12.8613 20.2114 5.78539 22.0003 5.14013C22.6105 4.92001 23.4472 5.30719 24.0853 5.78423C26.3249 7.45858 26.5562 9.79452 26.3627 10.4426C26.1193 11.2573 13.7476 26.9547 13.7476 26.9547C13.3776 26.8038 6.04731 13.1984 5.65007 10.8705C5.27045 8.64578 6.56205 7.13419 8.15568 5.78758V5.78758Z" fill="#3165D4"/>
</svg>
