<svg width="118" height="27" viewBox="0 0 118 27" fill="none" xmlns="http://www.w3.org/2000/svg">
<g id="verus-logo-blue 1" clip-path="url(#clip0_1_271)">
<path id="Vector" fill-rule="evenodd" clip-rule="evenodd" d="M104.737 0.135986C112.052 0.135986 117.991 6.1237 117.991 13.4989C117.991 20.874 112.052 26.8617 104.737 26.8617C97.4229 26.8617 91.4844 20.874 91.4844 13.4989C91.4844 6.1237 97.4229 0.135986 104.737 0.135986ZM100.59 13.6473C100.59 16.1925 102.372 17.8609 104.621 17.8609C106.36 17.8609 107.315 16.6845 107.569 16.2353C107.824 17.1336 108.588 17.8609 109.881 17.8609C111.939 17.8609 113.297 16.1713 113.297 12.749C113.297 8.38562 110.136 4.72824 104.875 4.72824C99.8053 4.72824 96.1782 8.55682 96.1782 13.5618C96.1782 18.6308 99.9963 22.2884 104.727 22.2884C106.721 22.2884 108.439 21.668 109.33 21.0479L108.694 19.9998C107.569 20.6414 106.169 20.9836 104.727 20.9836C100.548 20.9836 97.6419 17.8181 97.6419 13.5404C97.6419 9.41242 100.527 6.01158 104.854 6.01158C109.203 6.01158 111.876 8.85619 111.876 12.7704C111.876 15.4226 111.048 16.5776 109.988 16.5776C109.054 16.5776 108.694 15.9787 108.694 15.0163V9.56202H107.273V10.6743C107.018 10.3321 106.127 9.43366 104.578 9.43366C102.372 9.43366 100.59 11.1234 100.59 13.6473ZM102.118 13.6473C102.118 11.872 103.263 10.7813 104.706 10.7813C106.296 10.7813 107.336 11.9362 107.336 13.6046C107.336 15.5509 106.127 16.5349 104.727 16.5349C103.242 16.5349 102.118 15.4012 102.118 13.6473Z" fill="#3165D4"/>
<path id="Vector_2" d="M7.95296 20.738L13.4758 6.25952H11.1562L6.76552 18.2599L2.34723 6.25952H0L5.55047 20.738H7.95296Z" fill="#3165D4"/>
<path id="Vector_3" d="M14.1152 13.5518C14.1152 17.7946 16.9819 20.7381 21.1371 20.7381C24.2405 20.7381 26.0288 19.0409 26.7916 17.7416L25.4239 16.7339C24.7665 17.6621 23.4778 18.8819 21.1635 18.8819C18.3231 18.8819 16.2718 17.0257 16.2454 13.9497H27.2124C27.2386 13.6845 27.2386 13.3927 27.2386 13.3131C27.2386 9.17641 24.7665 6.25952 20.7427 6.25952C17.1133 6.25952 14.1152 9.14995 14.1152 13.5518ZM16.3508 12.3851C16.5085 9.78631 18.5072 8.06277 20.7427 8.06277C23.0045 8.06277 24.9769 9.52115 25.1084 12.3851H16.3508Z" fill="#3165D4"/>
<path id="Vector_4" d="M35.5673 5.86523C33.3809 5.86523 31.776 7.20464 31.2778 8.65558V6.22798H29.1191V20.7379H31.3054V13.7899C31.3054 10.6925 32.2742 8.06962 35.5673 8.06962V5.86523Z" fill="#3165D4"/>
<path id="Vector_5" d="M42.6495 21.1186C44.6172 21.1186 46.2522 19.9729 46.9172 18.6597V20.7554H49.1062V6.22607H46.8896V15.0554C46.8896 17.4583 45.3653 19.1069 43.1486 19.1069C41.2085 19.1069 39.7398 17.7098 39.7398 15.3906V6.22607H37.5508V15.3069C37.5508 18.6039 39.2967 21.1186 42.6495 21.1186Z" fill="#3165D4"/>
<path id="Vector_6" d="M50.584 17.7885C51.189 19.0879 52.4776 20.7319 55.3443 20.7319C58.0006 20.7319 59.9993 19.0879 59.9993 16.6482C59.9993 11.8485 53.1088 13.0154 53.1088 9.91275C53.1088 8.71953 54.1084 8.00358 55.3705 8.00358C57.1325 8.00358 57.8426 9.03765 58.2107 9.78024L59.7362 8.90514C59.3681 7.87093 58.0533 6.25342 55.502 6.25342C53.0299 6.25342 51.1101 7.65884 51.1101 9.9923C51.1101 14.6594 57.9741 13.5722 57.9741 16.7543C57.9741 18.1597 56.8171 18.9552 55.4493 18.9552C53.5822 18.9552 52.6091 17.921 52.0306 16.8338L50.584 17.7885Z" fill="#3165D4"/>
<path id="Vector_7" d="M61.7031 19.6195C61.7031 20.4827 62.4211 21.1789 63.2771 21.1789C64.1332 21.1789 64.8235 20.4827 64.8235 19.6195C64.8235 18.7565 64.1332 18.0603 63.2771 18.0603C62.4211 18.0603 61.7031 18.7565 61.7031 19.6195Z" fill="#3165D4"/>
<path id="Vector_8" d="M66.8342 20.8168H69.0156V6.33834H66.8342V20.8168ZM66.4199 2.60735C66.4199 3.47052 67.0826 4.13876 67.9113 4.13876C68.7673 4.13876 69.43 3.47052 69.43 2.60735C69.43 1.77197 68.7673 1.10376 67.9113 1.10376C67.0826 1.10376 66.4199 1.77197 66.4199 2.60735Z" fill="#3165D4"/>
<path id="Vector_9" d="M85.1111 0.686279H82.9018V8.6773C82.4878 7.92548 80.8308 5.9765 77.8484 5.9765C73.7617 5.9765 71 9.15051 71 13.6055C71 18.0327 73.8997 21.1789 78.0141 21.1789C81.1348 21.1789 82.6258 19.0629 82.9848 18.5337V20.8169H85.1111V0.686279ZM82.9848 13.6333C82.9848 16.6683 81.1348 19.2019 78.1247 19.2019C75.3631 19.2019 73.237 17.0023 73.237 13.6333C73.237 10.3199 75.2804 7.98111 78.0971 7.98111C80.7758 7.98111 82.9848 10.0415 82.9848 13.6333Z" fill="#3165D4"/>
</g>
<defs>
<clipPath id="clip0_1_271">
<rect width="118" height="27" fill="white"/>
</clipPath>
</defs>
</svg>
