<svg width="92" height="21" viewBox="0 0 92 21" fill="none" xmlns="http://www.w3.org/2000/svg">
<g clip-path="url(#clip0_1_862)">
<path fill-rule="evenodd" clip-rule="evenodd" d="M81.6601 0.105713C87.3629 0.105713 91.993 4.76282 91.993 10.4991C91.993 16.2353 87.3629 20.8924 81.6601 20.8924C75.9572 20.8924 71.3271 16.2353 71.3271 10.4991C71.3271 4.76282 75.9572 0.105713 81.6601 0.105713ZM78.4268 10.6145C78.4268 12.5941 79.8159 13.8918 81.569 13.8918C82.9251 13.8918 83.6694 12.9768 83.8681 12.6274C84.0665 13.3261 84.6619 13.8918 85.6707 13.8918C87.275 13.8918 88.3336 12.5776 88.3336 9.91583C88.3336 6.52209 85.8691 3.67747 81.7674 3.67747C77.8146 3.67747 74.9867 6.65525 74.9867 10.548C74.9867 14.4906 77.9635 17.3353 81.6518 17.3353C83.2064 17.3353 84.5462 16.8529 85.2407 16.3705L84.7445 15.5553C83.8681 16.0544 82.7764 16.3205 81.6518 16.3205C78.3937 16.3205 76.1279 13.8584 76.1279 10.5313C76.1279 7.32072 78.377 4.67562 81.7509 4.67562C85.1414 4.67562 87.2255 6.88809 87.2255 9.93249C87.2255 11.9953 86.5803 12.8936 85.7535 12.8936C85.0257 12.8936 84.7445 12.4278 84.7445 11.6793V7.43707H83.6366V8.3022C83.4379 8.03603 82.7432 7.33724 81.5359 7.33724C79.8159 7.33724 78.4268 8.65152 78.4268 10.6145ZM79.6175 10.6145C79.6175 9.2337 80.5106 8.38537 81.6353 8.38537C82.8756 8.38537 83.6861 9.28369 83.6861 10.5813C83.6861 12.0951 82.7432 12.8604 81.6518 12.8604C80.4939 12.8604 79.6175 11.9786 79.6175 10.6145Z" fill="white"/>
<path d="M6.20062 16.1297L10.5066 4.86865H8.69806L5.27481 14.2023L1.83004 4.86865H0L4.32749 16.1297H6.20062Z" fill="white"/>
<path d="M11.0059 10.5402C11.0059 13.8401 13.2409 16.1295 16.4806 16.1295C18.9002 16.1295 20.2944 14.8095 20.8891 13.7989L19.8228 13.0151C19.3102 13.7371 18.3055 14.6858 16.5012 14.6858C14.2866 14.6858 12.6873 13.2421 12.6667 10.8496H21.2172C21.2377 10.6434 21.2377 10.4164 21.2377 10.3546C21.2377 7.1371 19.3102 4.86841 16.173 4.86841C13.3434 4.86841 11.0059 7.11652 11.0059 10.5402ZM12.7488 9.63273C12.8718 7.61147 14.4301 6.27093 16.173 6.27093C17.9365 6.27093 19.4742 7.40523 19.5768 9.63273H12.7488Z" fill="white"/>
<path d="M27.7305 4.56201C26.0258 4.56201 24.7745 5.60377 24.3861 6.73228V4.84415H22.7031V16.1297H24.4077V10.7257C24.4077 8.31653 25.163 6.27654 27.7305 6.27654V4.56201Z" fill="white"/>
<path d="M33.2526 16.4256C34.7868 16.4256 36.0615 15.5345 36.58 14.5131V16.1431H38.2867V4.84253H36.5584V11.7098C36.5584 13.5787 35.37 14.861 33.6417 14.861C32.1291 14.861 30.984 13.7743 30.984 11.9705V4.84253H29.2773V11.9054C29.2773 14.4698 30.6385 16.4256 33.2526 16.4256Z" fill="white"/>
<path d="M39.4375 13.8355C39.9092 14.8461 40.9139 16.1248 43.1489 16.1248C45.22 16.1248 46.7782 14.8461 46.7782 12.9486C46.7782 9.2155 41.406 10.1231 41.406 7.70992C41.406 6.78185 42.1853 6.22501 43.1693 6.22501C44.5432 6.22501 45.0968 7.02928 45.3838 7.60685L46.5731 6.92622C46.2861 6.12183 45.261 4.86377 43.2719 4.86377C41.3445 4.86377 39.8477 5.95688 39.8477 7.77179C39.8477 11.4017 45.1993 10.5562 45.1993 13.0311C45.1993 14.1242 44.2972 14.743 43.2308 14.743C41.7751 14.743 41.0164 13.9386 40.5654 13.093L39.4375 13.8355Z" fill="white"/>
<path d="M48.1074 15.2596C48.1074 15.931 48.6672 16.4724 49.3346 16.4724C50.002 16.4724 50.5403 15.931 50.5403 15.2596C50.5403 14.5884 50.002 14.0469 49.3346 14.0469C48.6672 14.0469 48.1074 14.5884 48.1074 15.2596Z" fill="white"/>
<path d="M52.1092 16.191H53.8099V4.92998H52.1092V16.191ZM51.7861 2.0281C51.7861 2.69946 52.3028 3.21919 52.9489 3.21919C53.6163 3.21919 54.1329 2.69946 54.1329 2.0281C54.1329 1.37836 53.6163 0.858643 52.9489 0.858643C52.3028 0.858643 51.7861 1.37836 51.7861 2.0281Z" fill="white"/>
<path d="M66.3584 0.533691H64.6358V6.74893C64.313 6.16418 63.0211 4.6483 60.6959 4.6483C57.5096 4.6483 55.3564 7.11698 55.3564 10.582C55.3564 14.0253 57.6172 16.4724 60.8251 16.4724C63.2581 16.4724 64.4206 14.8266 64.7005 14.415V16.1909H66.3584V0.533691ZM64.7005 10.6036C64.7005 12.9641 63.2581 14.9348 60.9113 14.9348C58.7582 14.9348 57.1005 13.2239 57.1005 10.6036C57.1005 8.02654 58.6937 6.20745 60.8897 6.20745C62.9782 6.20745 64.7005 7.80998 64.7005 10.6036Z" fill="white"/>
</g>
<defs>
<clipPath id="clip0_1_862">
<rect width="92" height="21" fill="white"/>
</clipPath>
</defs>
</svg>
