<svg width="48" height="48" viewBox="0 0 48 48" fill="none" xmlns="http://www.w3.org/2000/svg">
<rect x="0.5" y="0.5" width="47" height="47" rx="8.5" fill="url(#paint0_linear_1_545)" stroke="#DEDEDE"/>
<g clip-path="url(#clip0_1_545)">
<path d="M24 12.3333C30.433 12.3333 35.6667 17.567 35.6667 24C35.6667 30.433 30.433 35.6667 24 35.6667C17.567 35.6667 12.3333 30.433 12.3333 24C12.3333 17.567 17.567 12.3333 24 12.3333ZM24 10C16.2685 10 10 16.2685 10 24C10 31.7315 16.2685 38 24 38C31.7315 38 38 31.7315 38 24C38 16.2685 31.7315 10 24 10ZM24.8248 26.2703L23.6173 27.5H22.8333V28.6667H21.6667V29.8333H18.1667V27.1593L21.837 23.4435C22.4157 24.7397 23.4925 25.7628 24.8248 26.2703ZM31 21.2782C31 23.6407 29.0843 25.5563 26.7218 25.5563C24.3605 25.5563 22.4448 23.6407 22.4448 21.2782C22.4448 18.9157 24.3605 17 26.7218 17C29.0843 17 31 18.9157 31 21.2782ZM29.3958 19.674C29.3958 19.0837 28.9175 18.6042 28.326 18.6042C27.7345 18.6042 27.2573 19.0837 27.2573 19.674C27.2573 20.2643 27.7345 20.7438 28.326 20.7438C28.9175 20.7438 29.3958 20.2643 29.3958 19.674Z" fill="black"/>
</g>
<defs>
<linearGradient id="paint0_linear_1_545" x1="24" y1="0" x2="24" y2="48" gradientUnits="userSpaceOnUse">
<stop stop-color="#EAEAEA"/>
<stop offset="1" stop-color="white"/>
</linearGradient>
<clipPath id="clip0_1_545">
<rect width="28" height="28" fill="white" transform="translate(10 10)"/>
</clipPath>
</defs>
</svg>
