<svg width="48" height="48" viewBox="0 0 48 48" fill="none" xmlns="http://www.w3.org/2000/svg">
<rect x="0.5" y="0.5" width="47" height="47" rx="8.5" fill="url(#paint0_linear_1_552)" stroke="#DEDEDE"/>
<g clip-path="url(#clip0_1_552)">
<path d="M24 10C16.2685 10 10 16.2685 10 24C10 31.7315 16.2685 38 24 38C31.7315 38 38 31.7315 38 24C38 16.2685 31.7315 10 24 10ZM12.3333 24C12.3333 17.567 17.567 12.3333 24 12.3333C30.433 12.3333 35.6667 17.567 35.6667 24C35.6667 25.9588 35.1755 27.8033 34.3192 29.4262L32.7127 27.8197C31.9403 27.0485 31.5437 25.9752 31.6277 24.8867C31.7875 22.8252 31.0782 20.71 29.5043 19.135C28.074 17.707 26.2085 17 24.3383 17C23.6348 17 22.9313 17.1003 22.25 17.2998L26.6483 21.6993C27.1267 23.9032 23.93 27.136 21.6993 26.6483L17.301 22.25C17.1003 22.9313 16.9988 23.636 16.9988 24.3407C16.9988 26.2097 17.7058 28.0763 19.1327 29.5043C20.71 31.0805 22.824 31.7887 24.8867 31.6288C25.974 31.5448 27.0473 31.9427 27.8197 32.715L29.4262 34.3203C27.8033 35.1767 25.9588 35.6667 24 35.6667C17.567 35.6667 12.3333 30.433 12.3333 24Z" fill="black"/>
</g>
<defs>
<linearGradient id="paint0_linear_1_552" x1="24" y1="0" x2="24" y2="48" gradientUnits="userSpaceOnUse">
<stop stop-color="#EAEAEA"/>
<stop offset="1" stop-color="white"/>
</linearGradient>
<clipPath id="clip0_1_552">
<rect width="28" height="28" fill="white" transform="translate(10 10)"/>
</clipPath>
</defs>
</svg>
