<svg width="48" height="48" viewBox="0 0 48 48" fill="none" xmlns="http://www.w3.org/2000/svg">
<rect x="0.5" y="0.5" width="47" height="47" rx="8.5" fill="url(#paint0_linear_1_538)" stroke="#DEDEDE"/>
<g clip-path="url(#clip0_1_538)">
<path fill-rule="evenodd" clip-rule="evenodd" d="M24 10C31.7268 10 38 16.2732 38 24C38 31.7268 31.7268 38 24 38C16.2732 38 10 31.7268 10 24C10 16.2732 16.2732 10 24 10ZM24 12.3333C30.4388 12.3333 35.6667 17.5612 35.6667 24C35.6667 30.4388 30.4388 35.6667 24 35.6667C17.5612 35.6667 12.3333 30.4388 12.3333 24C12.3333 17.5612 17.5612 12.3333 24 12.3333ZM26.3333 26.3333V22.8333L32.1667 27.5L26.3333 32.1667V28.6667H15.8333V26.3333H26.3333ZM21.6667 19.3333V15.8333L15.8333 20.5L21.6667 25.1667V21.6667H32.1667V19.3333H21.6667Z" fill="black"/>
</g>
<defs>
<linearGradient id="paint0_linear_1_538" x1="24" y1="0" x2="24" y2="48" gradientUnits="userSpaceOnUse">
<stop stop-color="#EAEAEA"/>
<stop offset="1" stop-color="white"/>
</linearGradient>
<clipPath id="clip0_1_538">
<rect width="28" height="28" fill="white" transform="translate(10 10)"/>
</clipPath>
</defs>
</svg>
