<svg width="48" height="48" viewBox="0 0 48 48" fill="none" xmlns="http://www.w3.org/2000/svg">
<rect x="0.5" y="0.5" width="47" height="47" rx="8.5" fill="url(#paint0_linear_1_531)" stroke="#DEDEDE"/>
<path fill-rule="evenodd" clip-rule="evenodd" d="M35.6678 25.1667C35.6678 18.7244 30.447 13.4989 23.9988 13.4989C17.5553 13.4989 12.331 18.7244 12.331 25.1667C12.331 30.2021 15.9325 36.8334 23.9988 36.8334C32.0838 36.8334 35.6678 30.1916 35.6678 25.1667ZM23.9988 34.5001C18.8527 34.5001 14.6643 30.3117 14.6643 25.1667C14.6643 20.0182 18.8527 15.8322 23.9988 15.8322C29.1462 15.8322 33.3345 20.0182 33.3345 25.1667C33.3345 30.3117 29.1462 34.5001 23.9988 34.5001ZM22.5067 26.5469L19.7942 24.0001L18.1667 25.6742L22.537 29.8334L30.1892 22.1427L28.5302 20.5001L22.5067 26.5469ZM10.9357 20.1676C10.3115 19.2062 10 18.1002 10 16.9966C10 13.7801 12.6052 11.1691 15.8228 11.1691C16.9288 11.1691 18.0348 11.4817 18.9973 12.1059C15.2967 13.5257 12.3567 16.4681 10.9357 20.1676ZM32.1702 11.1667C31.0653 11.1667 29.9593 11.4794 28.998 12.1036C32.6963 13.5246 35.641 16.4657 37.0643 20.1641C37.6873 19.2039 37.9988 18.0991 37.9988 16.9942C37.9988 13.7731 35.3902 11.1667 32.1702 11.1667Z" fill="black"/>
<defs>
<linearGradient id="paint0_linear_1_531" x1="24" y1="0" x2="24" y2="48" gradientUnits="userSpaceOnUse">
<stop stop-color="#EAEAEA"/>
<stop offset="1" stop-color="white"/>
</linearGradient>
</defs>
</svg>
